<?xml version="1.0" encoding="UTF-8"?>
<svg id="Calque_1" data-name="Calque 1" xmlns="http://www.w3.org/2000/svg" version="1.1" viewBox="0 0 1225.4 517.3">
  <defs>
    <style>
      .cls-1 {
        fill: #000046;
      }

      .cls-1, .cls-2 {
        stroke-width: 0px;
      }

      .cls-2 {
        fill: #32d1a0;
      }
    </style>
  </defs>
  <g>
    <path class="cls-1" d="M823.4,355.3c-1.8-1.4-4.1-2.4-6.9-3.1l-4.6-1.2c-1.6-.4-2.7-.8-3.6-1.3-.8-.5-1.2-1.1-1.2-1.8s.4-1.6,1.1-2.2c.7-.5,1.7-.8,2.9-.8s2.8.3,4.1.9c1.2.6,2.1,1.5,2.5,2.6l10.7-4.4c-.7-1.9-1.9-3.7-3.4-5.1-1.6-1.5-3.5-2.6-5.8-3.4-2.3-.8-5-1.2-8.1-1.2-5.4,0-9.6,1.2-12.6,3.6s-4.5,5.8-4.5,10.3,1.1,6,3.2,8.4,5.2,4.1,9.2,5.1l3.7,1.1c1.6.4,2.8.8,3.6,1.3.8.5,1.2,1.2,1.2,2.1s-.4,1.6-1.2,2.1c-.8.5-1.9.7-3.3.7s-2.8-.4-4.1-1.1c-1.3-.7-2.3-1.8-3.1-3.2l-11,4.6c.9,2.2,2.2,4,4,5.5,1.8,1.5,3.9,2.7,6.4,3.5,2.5.8,5.1,1.2,7.9,1.2s6.9-.5,9.7-1.6c2.8-1.1,5-2.6,6.6-4.6,1.6-2,2.4-4.3,2.4-7s-.5-4.1-1.4-6c-1-1.9-2.4-3.5-4.2-4.9Z"/>
    <path class="cls-1" d="M875.1,346c-1.9-3.9-4.5-6.8-7.8-8.8-3.2-1.9-6.9-2.9-11.1-2.9s-8.5.9-12,2.8c-3.5,1.9-6.2,4.6-8.1,8-1.9,3.4-2.9,7.3-2.9,11.8s1,8.4,2.9,11.8c1.9,3.4,4.6,6,8.1,8,3.4,1.9,7.4,2.8,11.9,2.8s5.8-.4,8.6-1.2,5.1-2.1,7.2-4c2.1-1.8,3.7-4.1,4.8-6.7l-11.8-4.1c-.6,1.5-1.7,2.7-3.1,3.7s-3.2,1.4-5.3,1.4-3.4-.4-4.8-1.2c-1.4-.8-2.6-1.9-3.4-3.4-.6-1.1-1-2.2-1.1-3.5h30.9c0-5.8-1-10.6-2.9-14.4ZM852,345.4c1.3-.6,2.6-.9,3.8-.9s2.5.3,3.7.9c1.3.6,2.3,1.5,3.2,2.8.6.9,1,2,1.1,3.3h-16.5c.2-1.3.6-2.5,1.2-3.3.9-1.2,2.1-2.1,3.4-2.7Z"/>
    <path class="cls-1" d="M909.3,365.5c-1.4.9-3,1.4-4.8,1.4s-3.4-.4-4.8-1.3c-1.4-.9-2.5-2-3.3-3.5s-1.2-3.2-1.2-5.1.4-3.7,1.2-5.2c.8-1.5,1.8-2.7,3.2-3.5,1.4-.8,2.9-1.2,4.7-1.2s3.4.4,4.9,1.3,2.5,2,3.2,3.4l12.7-4.3c-1.6-4.2-4.2-7.5-8-9.7-3.7-2.3-7.7-3.4-12.2-3.4s-8.7,1-12.2,2.9c-3.5,1.9-6.3,4.6-8.3,8-2,3.4-3,7.3-3,11.7s1,8.3,3,11.7c2,3.4,4.8,6.1,8.4,8,3.6,1.9,7.7,2.9,12.3,2.9s8.5-1.1,12.1-3.4c3.7-2.3,6.3-5.6,8-9.9l-12.7-4.3c-.7,1.5-1.8,2.7-3.2,3.7Z"/>
    <path class="cls-1" d="M958.1,358.1c0,2.9-.7,5.1-2,6.6-1.3,1.5-3.3,2.2-5.8,2.2-1.3,0-2.5-.4-3.4-1.1-1-.6-1.7-1.6-2.3-3-.5-1.4-.8-3.2-.8-5.4v-22.1h-13.4v24.6c0,4.5.6,8.1,1.8,11s3,5,5.3,6.4,5.3,2.1,8.7,2.1,5.9-.8,8.3-2.5c1.5-1.1,2.8-2.4,3.9-4.1l.5,5.5h12.7v-43.1h-13.4v22.8h0Z"/>
    <path class="cls-1" d="M993.8,343.4v-8h-13.4v43.1h13.4v-22.1c0-1.8.7-3.4,2.1-4.5s3.3-2.1,5.7-2.6c2.3-.6,4.8-.9,7.4-.9v-13.1c-3.1,0-6.1.8-8.9,2.3-2.5,1.3-4.6,3.2-6.3,5.8Z"/>
    <rect class="cls-1" x="1015.4" y="335.4" width="13.4" height="43.1"/>
    <path class="cls-1" d="M1022.1,314.7c-2,0-3.8.7-5.3,2.2-1.5,1.5-2.3,3.3-2.3,5.4s.8,3.8,2.3,5.3,3.3,2.3,5.3,2.3,3.9-.8,5.3-2.3,2.3-3.3,2.3-5.3-.7-3.9-2.3-5.4c-1.5-1.4-3.3-2.2-5.3-2.2Z"/>
    <path class="cls-1" d="M1060.9,366.6c-.7.3-1.3.4-1.8.4-1.3,0-2.3-.4-2.9-1.2s-.9-2.1-.9-3.8v-15.4h9.8v-11.3h-9.8v-13.4h-13.4v13.4h-6.8v11.3h6.7v18.7c0,4.6,1.2,8,3.7,10.5,2.5,2.5,6.3,3.7,11.4,3.7s3.6-.4,5.6-1.2c1.9-.8,3.6-1.8,4.9-2.9l-4.6-9.8c-.6.4-1.2.7-1.9,1Z"/>
    <path class="cls-1" d="M1106.3,335.4l-10.4,27.4-11.1-27.4h-14.9l19.9,42.5-1.2,3c-.5,1.2-1.2,2.1-2.1,2.6s-1.8.8-2.9.8-1.3-.2-2.1-.4c-.8-.3-1.6-.7-2.4-1.3l-5,11c1.4.8,3.1,1.6,5.1,2.3,2,.7,4,1.1,5.8,1.1,3.4,0,6-.7,8.1-2,2-1.3,3.7-3.2,5.1-5.5,1.4-2.3,2.7-5.1,4-8.2l19.1-45.7h-15Z"/>
  </g>
  <g>
    <path class="cls-1" d="M193.7,208.7c-8.2-4.9-17.4-7.3-27.8-7.3s-18.2,2.5-26,7.4c-3,1.9-5.7,4.1-8.2,6.5l-2.3-10.9h-26.7v143.5h29.7v-46.4c2.1,1.9,4.4,3.7,6.8,5.2,7.9,5,16.8,7.5,26.7,7.5s19.4-2.5,27.6-7.3,14.7-11.6,19.4-20.2c4.7-8.6,7-18.2,7-28.7s-2.3-20.3-7-28.9c-4.7-8.6-11.1-15.4-19.3-20.3ZM187,272.8c-2.5,4.4-6,7.9-10.3,10.4-4.4,2.5-9.3,3.8-14.8,3.8s-10.3-1.2-14.8-3.8c-4.4-2.5-7.9-6-10.4-10.5-2.5-4.5-3.8-9.5-3.8-15s1.2-10.4,3.8-14.8c2.5-4.5,6-8,10.4-10.6,4.4-2.6,9.4-3.9,14.8-3.9s10.5,1.3,14.8,3.9c4.4,2.6,7.8,6.1,10.3,10.6s3.8,9.5,3.8,15-1.3,10.5-3.8,14.9Z"/>
    <path class="cls-1" d="M270.7,209.9c-2.1,1.8-4.1,3.7-5.9,6l-2.3-11.5h-25.4v106.8h29.7v-59.5c0-4.1.9-7.6,2.7-10.6,1.8-3,4.3-5.3,7.6-6.8,3.3-1.6,7.2-2.4,11.9-2.4s4.1.1,6.7.4v-28.8c-1.9-.3-3.8-.4-5.7-.4-7.4,0-13.9,2.3-19.4,6.7Z"/>
    <path class="cls-1" d="M391,208.6c-8.5-4.8-18.3-7.2-29.2-7.2s-20.9,2.5-29.7,7.3c-8.8,4.9-15.7,11.6-20.6,20.2-4.9,8.6-7.3,18.2-7.3,28.7s2.5,21.1,7.6,29.7c5.1,8.6,12.1,15.2,21.1,19.8,9,4.6,19.1,6.9,30.3,6.9s21.6-2,30.3-6c8.7-4,16-10.8,21.8-20.3l-23.6-13.3c-3.3,5-7.2,8.7-11.8,10.9s-10,3.4-16.3,3.4-11.3-1.2-15.9-3.7-8.4-6-11.2-10.7c-1.2-2-2.1-4.2-2.8-6.6h84.3c.4-3,.6-6.6.6-10.7,0-10.7-2.5-20.2-7.3-28.6-4.8-8.3-11.5-14.9-20.1-19.8ZM346.4,230.4c4.4-2.6,9.5-3.9,15.4-3.9s11.4,1.2,15.7,3.7c4.2,2.5,7.5,6,9.8,10.8.8,1.7,1.5,3.5,2,5.3h-55.4c.5-1.8,1.3-3.5,2.1-5.1,2.5-4.6,6-8.3,10.4-10.9Z"/>
    <path class="cls-1" d="M492.7,252.9c-5.3-3.2-11.8-5.9-19.6-8.1-3.7-1.1-6.7-2.1-8.9-3.2-2.3-1.1-3.9-2.3-4.9-3.7s-1.5-3-1.5-4.9,1-4.2,3-5.7,4.5-2.1,7.5-2.1,5.7.9,7.9,2.8c2.3,1.9,4,4.5,5.1,7.9l25-7.3c-2.8-8.6-7.5-15.3-14.2-20.1-6.7-4.8-14.6-7.2-23.7-7.2s-14.2,1.4-20.1,4.1c-5.9,2.7-10.4,6.5-13.6,11.4s-4.8,10.5-4.8,16.8,1.3,11.1,3.9,15.6c2.6,4.4,6.2,8.2,10.9,11.3,4.7,3.1,10.5,5.7,17.3,7.8,4.8,1.4,8.3,2.7,10.8,3.8s4.3,2.3,5.5,3.7c1.2,1.4,1.9,3.2,1.9,5.3s-1.1,5-3.2,6.7c-2.1,1.7-4.8,2.6-8.1,2.6s-6.9-1.2-9.9-3.6c-3-2.4-5.3-6-6.9-10.9l-26,7.5c3.2,10.1,8.3,17.7,15.5,22.9,7.1,5.2,16,7.8,26.5,7.8s14.8-1.4,20.9-4.2c6.2-2.8,10.9-6.7,14.4-11.7,3.4-5,5.1-10.8,5.1-17.4s-1.4-11.6-4.1-16.3c-2.7-4.6-6.7-8.5-12-11.7Z"/>
    <path class="cls-1" d="M560.9,183.2h-24.4v3.2c0,5.1-.5,9-1.4,11.6-.9,2.6-2.5,4.4-4.8,5.3-2.3,1-5.7,1.5-10.5,1.5h-2.4v26h14.8v46.4c0,12.2,2.9,21.2,8.7,27.2,5.8,6,14.6,9,26.3,9s8.4-.4,13.3-1v-27.8c-2.1.4-4.4.6-6.7.6-4.4,0-7.4-.7-9.2-2.3-1.8-1.5-2.7-4.4-2.7-8.8v-43.4h18.8v-26.3h-20v-21.2Z"/>
    <path class="cls-1" d="M674.2,212.8c-8.5-7.6-19.8-11.4-34.1-11.4s-14.5.9-21.3,2.8c-6.8,1.9-13.9,4.7-21.3,8.5l10.7,24c5.4-2.9,10.5-5.2,15.4-6.8s9.5-2.5,14.2-2.5,10.8,1.4,14.3,4.4c3.4,2.9,5.1,7,5.1,12.3v7.4c-2.1-1.8-4.3-3.3-6.7-4.6-5.5-2.9-11.8-4.4-18.8-4.4s-13.4,1.6-19.1,4.6c-5.7,3.1-10.3,7.4-13.5,12.9-3.2,5.5-4.9,11.6-4.9,18.3s1.8,13.6,5.3,19.1,8.1,9.6,13.7,12.5c5.6,2.8,11.7,4.2,18.1,4.2s12.5-1.4,18-4.2c3.7-1.9,7-4.4,9.8-7.5l1.9,8.8h26v-66.5c0-13.6-4.2-24.2-12.6-31.8ZM649.1,289.6c-2.5,1.2-5.5,1.8-8.9,1.8s-6-.6-8.6-1.8-4.6-2.8-6-4.9c-1.4-2.1-2.1-4.5-2.1-7.4s.7-5.2,2.1-7.3c1.4-2.1,3.4-3.8,6-4.9,2.6-1.2,5.5-1.8,8.6-1.8s6.4.6,8.9,1.8c2.5,1.2,4.4,2.8,5.8,4.9s2.1,4.6,2.1,7.3-.7,5.4-2.1,7.4c-1.4,2.1-3.4,3.7-5.8,4.9Z"/>
  </g>
  <g>
    <path class="cls-2" d="M766.2,252.9c-5.3-3.2-11.8-5.9-19.6-8.1-3.7-1.1-6.7-2.1-8.9-3.2-2.3-1.1-3.9-2.3-4.9-3.7s-1.5-3-1.5-4.9,1-4.2,3-5.7,4.5-2.1,7.5-2.1,5.7.9,7.9,2.8c2.3,1.9,4,4.5,5.1,7.9l25-7.3c-2.8-8.6-7.5-15.3-14.2-20.1-6.7-4.8-14.6-7.2-23.7-7.2s-14.2,1.4-20.1,4.1c-5.9,2.7-10.4,6.5-13.6,11.4-3.2,4.9-4.8,10.5-4.8,16.8s1.3,11.1,3.9,15.6c2.6,4.4,6.2,8.2,10.9,11.3,4.7,3.1,10.5,5.7,17.3,7.8,4.8,1.4,8.3,2.7,10.8,3.8,2.5,1.1,4.3,2.3,5.5,3.7,1.2,1.4,1.9,3.2,1.9,5.3s-1.1,5-3.2,6.7-4.8,2.6-8.1,2.6-6.9-1.2-9.9-3.6-5.3-6-6.9-10.9l-26,7.5c3.2,10.1,8.3,17.7,15.5,22.9,7.1,5.2,16,7.8,26.5,7.8s14.8-1.4,20.9-4.2c6.1-2.8,10.9-6.7,14.4-11.7,3.4-5,5.1-10.8,5.1-17.4s-1.4-11.6-4.1-16.3c-2.7-4.6-6.7-8.5-12-11.7Z"/>
    <path class="cls-2" d="M866.4,282.7c-4.4,2.9-9.6,4.4-15.6,4.4s-10.1-1.2-14.4-3.8c-4.3-2.5-7.7-6-10.2-10.4-2.5-4.4-3.8-9.4-3.8-15s1.2-10.8,3.8-15.3c2.5-4.5,5.9-8,10.2-10.5,4.3-2.5,9.1-3.8,14.4-3.8s10.9,1.4,15.2,4.2c4.4,2.8,7.9,6.9,10.5,12.3l26.2-11.1c-4.6-10.3-11.4-18.3-20.4-23.9s-19.6-8.4-31.7-8.4-20.8,2.5-29.5,7.3c-8.7,4.9-15.6,11.6-20.5,20.2-4.9,8.6-7.4,18.2-7.4,28.9s2.5,20.2,7.4,28.7c4.9,8.6,11.8,15.3,20.6,20.2,8.8,4.9,18.6,7.3,29.4,7.3s17-1.6,24.3-4.8,13.4-7.3,18.3-12.4c4.9-5.1,8.4-10.5,10.5-16.3l-26.7-11.1c-2.5,5.9-6.1,10.2-10.5,13.1Z"/>
    <path class="cls-2" d="M993.3,212.8c-8.5-7.6-19.8-11.4-34.1-11.4s-14.5.9-21.3,2.8c-6.8,1.9-13.9,4.7-21.3,8.5l10.7,24c5.4-2.9,10.5-5.2,15.4-6.8s9.5-2.5,14.2-2.5,10.8,1.4,14.3,4.4c3.4,2.9,5.1,7,5.1,12.3v7.4c-2.1-1.8-4.3-3.3-6.7-4.6-5.5-2.9-11.8-4.4-18.8-4.4s-13.4,1.6-19.1,4.6c-5.7,3.1-10.3,7.4-13.5,12.9-3.2,5.5-4.9,11.6-4.9,18.3s1.8,13.6,5.3,19.1,8.1,9.6,13.7,12.5c5.6,2.8,11.7,4.2,18.1,4.2s12.5-1.4,18-4.2c3.7-1.9,7-4.4,9.8-7.5l1.9,8.8h26v-66.5c0-13.6-4.2-24.2-12.6-31.8ZM968.2,289.6c-2.5,1.2-5.5,1.8-8.9,1.8s-6-.6-8.6-1.8-4.6-2.8-6-4.9-2.1-4.5-2.1-7.4.7-5.2,2.1-7.3c1.4-2.1,3.4-3.8,6-4.9,2.6-1.2,5.5-1.8,8.6-1.8s6.4.6,8.9,1.8c2.5,1.2,4.4,2.8,5.8,4.9s2.1,4.6,2.1,7.3-.7,5.4-2.1,7.4-3.3,3.7-5.8,4.9Z"/>
    <path class="cls-2" d="M1116.2,220.9c-3-6.2-7.3-10.9-12.9-14.4-5.5-3.4-11.9-5.1-19-5.1s-12.9,1.7-18.8,5.1c-3.7,2.1-6.9,4.9-9.8,8.2l-2.1-10.4h-25.4v106.8h29.7v-65.2c0-3.4.7-6.5,2.3-9.2,1.5-2.7,3.6-4.8,6.2-6.4,2.6-1.5,5.6-2.3,9-2.3,5.1,0,9,1.4,11.7,4.2,2.7,2.8,4,6.8,4,11.8v67h29.7v-69.2c0-8-1.6-15-4.6-21.1Z"/>
  </g>
</svg>