<?xml version="1.0" encoding="utf-8"?>
<!-- Generator: Adobe Illustrator 23.0.1, SVG Export Plug-In . SVG Version: 6.00 Build 0)  -->
<svg version="1.1" id="Calque_1" xmlns="http://www.w3.org/2000/svg" xmlns:xlink="http://www.w3.org/1999/xlink" x="0px" y="0px"
	 viewBox="0 0 2551.7 834.1" style="enable-background:new 0 0 2551.7 834.1;" xml:space="preserve">
<style type="text/css">
	.st0{fill:#FFFFFF;}
</style>
<g>
	<g>
		<circle class="st0" cx="2289.5" cy="748.4" r="18.6"/>
		<circle class="st0" cx="2366.1" cy="490.2" r="19.5"/>
		<circle class="st0" cx="2350.8" cy="681.1" r="20.2"/>
		<circle class="st0" cx="2227" cy="713" r="18.6"/>
		<circle class="st0" cx="2395.4" cy="713" r="14.9"/>
		<circle class="st0" cx="2033.7" cy="313.6" r="14.9"/>
		<circle class="st0" cx="2022" cy="652.3" r="14.9"/>
		<circle class="st0" cx="2472.6" cy="629.3" r="23"/>
		<circle class="st0" cx="2542.1" cy="393.3" r="9.3"/>
		<circle class="st0" cx="2509.2" cy="282.4" r="9.3"/>
		<circle class="st0" cx="2379.3" cy="625" r="18.6"/>
		<circle class="st0" cx="2330.6" cy="561.7" r="18.6"/>
		<circle class="st0" cx="2408.5" cy="548" r="20.7"/>
		<circle class="st0" cx="2335.5" cy="431.5" r="18.8"/>
		<circle class="st0" cx="2431.7" cy="393.3" r="32.3"/>
		<circle class="st0" cx="2344.2" cy="361.1" r="28.6"/>
		<circle class="st0" cx="2254.9" cy="292.7" r="20.9"/>
		<circle class="st0" cx="2156.6" cy="263" r="23.5"/>
		<circle class="st0" cx="2327.8" cy="263" r="24.8"/>
		<circle class="st0" cx="2284.7" cy="625" r="24.8"/>
		<circle class="st0" cx="2094.4" cy="625" r="24.8"/>
		<circle class="st0" cx="2168.3" cy="114.4" r="18.6"/>
		<circle class="st0" cx="2338" cy="177.5" r="24.8"/>
		<circle class="st0" cx="2234" cy="211.6" r="25.2"/>
		<circle class="st0" cx="2480.8" cy="513.3" r="23.1"/>
		<circle class="st0" cx="2472.6" cy="343.8" r="18.2"/>
		<circle class="st0" cx="2490.8" cy="436.3" r="16.1"/>
		<circle class="st0" cx="2402.3" cy="307.6" r="19.6"/>
		<circle class="st0" cx="2402.7" cy="232" r="20.4"/>
		<circle class="st0" cx="2315.6" cy="116.3" r="19.9"/>
		<circle class="st0" cx="2149.7" cy="189.8" r="26.6"/>
		<circle class="st0" cx="2083.5" cy="165.7" r="26.6"/>
		<circle class="st0" cx="2199.4" cy="51.7" r="18.6"/>
		<circle class="st0" cx="2275.8" cy="33.2" r="15.8"/>
		<circle class="st0" cx="2265.7" cy="146.7" r="19"/>
		<circle class="st0" cx="2186.9" cy="652.3" r="19"/>
		<circle class="st0" cx="2433.7" cy="131.9" r="19"/>
		<circle class="st0" cx="1833.6" cy="263" r="28.8"/>
		<circle class="st0" cx="1929.5" cy="259.2" r="19.8"/>
		<circle class="st0" cx="1845.5" cy="660.9" r="19.8"/>
		<circle class="st0" cx="1884.1" cy="177.6" r="20.5"/>
		<circle class="st0" cx="1780.4" cy="177.6" r="11"/>
		<circle class="st0" cx="1780.4" cy="606.4" r="11"/>
		<circle class="st0" cx="1920.8" cy="105.4" r="11.2"/>
		<circle class="st0" cx="2056.9" cy="12.8" r="11.2"/>
		<circle class="st0" cx="2093.6" cy="98.6" r="14.1"/>
		<circle class="st0" cx="2000.3" cy="121.8" r="23.1"/>
		<circle class="st0" cx="1977.2" cy="202.2" r="28"/>
		<circle class="st0" cx="2056.9" cy="237.6" r="35.4"/>
		<circle class="st0" cx="1936.6" cy="629.3" r="35.4"/>
		<circle class="st0" cx="2146" cy="721.2" r="24.9"/>
		<circle class="st0" cx="2211.3" cy="771.7" r="23.7"/>
		<circle class="st0" cx="2342.7" cy="795.3" r="12.1"/>
		<circle class="st0" cx="2153.3" cy="814.1" r="21.6"/>
		<circle class="st0" cx="2050.3" cy="795.3" r="28.4"/>
		<circle class="st0" cx="1990.2" cy="735.1" r="27.8"/>
		<circle class="st0" cx="1801.5" cy="721.2" r="17.6"/>
		<circle class="st0" cx="1901" cy="729.8" r="22.5"/>
		<circle class="st0" cx="1947.6" cy="811.1" r="13.8"/>
		<circle class="st0" cx="2060.9" cy="713" r="18.6"/>
	</g>
	<g>
		<path class="st0" d="M204.3,331.7c-18.4-11-39.2-16.5-62.3-16.5c-21.4,0-40.8,5.6-58.3,16.7c-6.7,4.2-12.8,9.1-18.5,14.5
			l-5.1-24.6H0v322.2h66.8V539.8c4.7,4.3,9.9,8.2,15.4,11.7c17.6,11.3,37.6,16.9,59.9,16.9c22.8,0,43.5-5.5,62.1-16.5
			c18.5-11,33.1-26.1,43.6-45.4c10.5-19.3,15.8-40.8,15.8-64.5c0-24-5.3-45.7-15.8-65C237.1,357.8,222.7,342.6,204.3,331.7z
			 M189.1,475.6c-5.6,9.9-13.4,17.7-23.1,23.4c-9.8,5.6-20.9,8.5-33.4,8.5c-12.2,0-23.2-2.8-33.2-8.5c-9.9-5.6-17.7-13.5-23.4-23.6
			c-5.6-10.1-8.5-21.4-8.5-33.8c0-12.2,2.8-23.3,8.5-33.4c5.6-10.1,13.4-18,23.4-23.8c9.9-5.8,21-8.7,33.2-8.7
			c12.5,0,23.6,2.9,33.4,8.7c9.8,5.8,17.5,13.7,23.1,23.8c5.6,10.1,8.5,21.4,8.5,33.8S194.8,465.7,189.1,475.6z"/>
		<path class="st0" d="M377.2,334.3c-4.8,4-9.2,8.4-13.2,13.4l-5.3-25.9h-57v239.9h66.8V428.2c0-9.2,2-17.1,6-23.8
			c4-6.7,9.7-11.8,17.1-15.4c7.4-3.6,16.3-5.3,26.7-5.3c4.2,0,9.2,0.3,15.1,0.9v-64.5c-4.2-0.6-8.5-0.9-12.9-0.9
			C403.9,319.2,389.5,324.2,377.2,334.3z"/>
		<path class="st0" d="M647.3,331.4c-19.1-10.8-41-16.2-65.6-16.2c-24.6,0-46.9,5.5-66.8,16.5c-19.9,11-35.3,26.1-46.3,45.4
			c-11,19.3-16.5,40.8-16.5,64.5c0,25.2,5.7,47.5,17.1,66.8c11.4,19.3,27.2,34.1,47.4,44.5c20.2,10.4,42.9,15.6,68.1,15.6
			c25.8,0,48.5-4.5,68.1-13.6c19.6-9,35.9-24.3,49-45.6l-53-29.8c-7.4,11.3-16.2,19.4-26.5,24.5c-10.2,5-22.5,7.6-36.7,7.6
			c-13.4,0-25.3-2.7-35.8-8.2c-10.5-5.5-18.9-13.5-25.1-24c-2.7-4.6-4.8-9.6-6.4-14.9h125.2h26.3h37.8c0.9-6.8,1.3-14.8,1.3-24
			c0-24-5.5-45.5-16.5-64.3C681.5,357.1,666.4,342.3,647.3,331.4z M547.2,380.4c9.9-5.8,21.4-8.7,34.5-8.7c13.9,0,25.7,2.7,35.2,8.2
			c9.5,5.5,16.8,13.6,22,24.3c1.8,3.8,3.3,7.8,4.5,12H519c1.3-4,2.8-7.8,4.8-11.3C529.4,394.3,537.2,386.2,547.2,380.4z"/>
		<path class="st0" d="M875.8,430.9c-11.9-7.1-26.6-13.2-44.1-18.2c-8.3-2.4-15-4.7-20-7.1c-5-2.4-8.7-5.1-10.9-8.2
			s-3.3-6.7-3.3-10.9c0-5.3,2.2-9.6,6.7-12.7s10.1-4.7,16.9-4.7c6.8,0,12.8,2.1,17.8,6.2c5,4.2,8.9,10.1,11.6,17.8l56.1-16.5
			c-6.2-19.3-16.8-34.3-31.8-45.2c-15-10.8-32.7-16.2-53.2-16.2c-16.9,0-32,3-45.2,9.1c-13.2,6.1-23.4,14.6-30.5,25.6
			c-7.1,11-10.7,23.6-10.7,37.8c0,13.4,2.9,25,8.7,34.9c5.8,9.9,13.9,18.4,24.5,25.4c10.5,7,23.5,12.8,38.9,17.6
			c10.7,3.3,18.8,6.1,24.3,8.5c5.5,2.4,9.6,5.1,12.5,8.2c2.8,3.1,4.2,7.1,4.2,11.8c0,6.2-2.4,11.3-7.1,15.1
			c-4.7,3.9-10.8,5.8-18.2,5.8c-8,0-15.4-2.7-22.3-8c-6.8-5.3-12-13.5-15.6-24.5l-58.3,16.9c7.1,22.6,18.7,39.7,34.7,51.4
			c16,11.7,35.9,17.6,59.6,17.6c17.5,0,33.2-3.1,47-9.3c13.8-6.2,24.5-15,32.3-26.3c7.7-11.3,11.6-24.3,11.6-39.2
			c0-13.9-3-26.1-9.1-36.5C896.7,446.8,887.7,438,875.8,430.9z"/>
		<path class="st0" d="M1028.9,274.2h-54.7v7.1c0,11.6-1,20.2-3.1,26c-2.1,5.8-5.6,9.8-10.7,12c-5,2.2-12.9,3.3-23.6,3.3h-5.3V381
			h33.4v104.1c0,27.3,6.5,47.7,19.6,61.2c13.1,13.5,32.8,20.2,59.2,20.2c8.9,0,18.8-0.7,29.8-2.2v-62.3c-4.8,0.9-9.8,1.3-15.1,1.3
			c-9.8,0-16.7-1.7-20.7-5.1c-4-3.4-6-10-6-19.8V381h42.3v-59.2h-44.9V274.2z"/>
		<path class="st0" d="M1283.5,340.8c-19-17.1-44.5-25.6-76.5-25.6c-16.6,0-32.6,2.1-47.8,6.2c-15.3,4.2-31.2,10.5-47.8,19.1
			l24,53.8c12.2-6.5,23.7-11.6,34.5-15.4c10.8-3.7,21.4-5.6,31.8-5.6c13.6,0,24.3,3.3,32,9.8c7.7,6.5,11.6,15.7,11.6,27.6l-0.2,16.6
			c-4.4-4-9.4-7.4-15-10.3c-12.5-6.5-26.6-9.8-42.3-9.8c-15.7,0-30,3.5-42.9,10.5c-12.9,7-23,16.6-30.3,28.9
			c-7.3,12.3-10.9,26-10.9,41.2c0,16.3,3.9,30.6,11.8,42.9c7.9,12.3,18.1,21.7,30.7,28c12.6,6.4,26.2,9.6,40.7,9.6
			c14.5,0,28-3.2,40.5-9.6c8.4-4.3,15.7-9.9,21.9-16.9l4.3,19.8h58.3V412.2C1311.9,381.6,1302.4,357.8,1283.5,340.8z M1226.9,513.2
			c-5.6,2.7-12.3,4-20,4c-7.1,0-13.6-1.3-19.4-4c-5.8-2.7-10.2-6.3-13.4-10.9c-3.1-4.6-4.7-10.2-4.7-16.7c0-6.2,1.6-11.7,4.7-16.5
			c3.1-4.7,7.6-8.5,13.4-11.1c5.8-2.7,12.2-4,19.4-4c7.7,0,14.4,1.3,20,4c5.6,2.7,10,6.4,13.1,11.1c3.1,4.8,4.7,10.2,4.7,16.5
			c0,6.5-1.6,12.1-4.7,16.7C1237,506.9,1232.6,510.6,1226.9,513.2z"/>
	</g>
	<g>
		<path class="st0" d="M1492.6,430.9c-11.9-7.1-26.6-13.2-44.1-18.2c-8.3-2.4-15-4.7-20-7.1c-5-2.4-8.7-5.1-10.9-8.2
			s-3.3-6.7-3.3-10.9c0-5.3,2.2-9.6,6.7-12.7s10.1-4.7,16.9-4.7c6.8,0,12.8,2.1,17.8,6.2c5,4.2,8.9,10.1,11.6,17.8l56.1-16.5
			c-6.2-19.3-16.8-34.3-31.8-45.2c-15-10.8-32.7-16.2-53.2-16.2c-16.9,0-32,3-45.2,9.1c-13.2,6.1-23.4,14.6-30.5,25.6
			c-7.1,11-10.7,23.6-10.7,37.8c0,13.4,2.9,25,8.7,34.9c5.8,9.9,13.9,18.4,24.5,25.4c10.5,7,23.5,12.8,38.9,17.6
			c10.7,3.3,18.8,6.1,24.3,8.5c5.5,2.4,9.6,5.1,12.5,8.2c2.8,3.1,4.2,7.1,4.2,11.8c0,6.2-2.4,11.3-7.1,15.1
			c-4.7,3.9-10.8,5.8-18.2,5.8c-8,0-15.4-2.7-22.3-8c-6.8-5.3-12-13.5-15.6-24.5l-58.3,16.9c7.1,22.6,18.7,39.7,34.7,51.4
			s35.9,17.6,59.6,17.6c17.5,0,33.2-3.1,47-9.3s24.5-15,32.3-26.3c7.7-11.3,11.6-24.3,11.6-39.2c0-13.9-3-26.1-9.1-36.5
			C1513.5,446.8,1504.5,438,1492.6,430.9z"/>
		<path class="st0" d="M1717.6,497.6c-9.9,6.5-21.6,9.8-34.9,9.8c-11.9,0-22.6-2.8-32.3-8.5c-9.6-5.6-17.3-13.4-22.9-23.4
			c-5.6-9.9-8.5-21.1-8.5-33.6c0-12.8,2.8-24.2,8.5-34.3c5.6-10.1,13.3-17.9,22.9-23.6c9.6-5.6,20.4-8.5,32.3-8.5
			c13.1,0,24.5,3.1,34.3,9.3s17.6,15.4,23.6,27.6l58.7-24.9c-10.4-23.1-25.7-41-45.8-53.6c-20.2-12.6-43.9-18.9-71.2-18.9
			c-24.6,0-46.7,5.5-66.3,16.5c-19.6,11-34.9,26.1-46.1,45.4c-11.1,19.3-16.7,40.9-16.7,65c0,23.7,5.6,45.2,16.7,64.5
			c11.1,19.3,26.5,34.4,46.3,45.4c19.7,11,41.8,16.5,66.1,16.5c19.9,0,38.1-3.6,54.5-10.7c16.5-7.1,30.2-16.4,41.2-27.8
			c11-11.4,18.8-23.7,23.6-36.7l-60.1-24.9C1735.5,481.3,1727.5,491.1,1717.6,497.6z"/>
		<path class="st0" d="M2002.6,340.8c-19-17.1-44.5-25.6-76.5-25.6c-16.6,0-32.6,2.1-47.8,6.2c-15.3,4.2-31.2,10.5-47.8,19.1
			l24,53.8c12.2-6.5,23.7-11.6,34.5-15.4c10.8-3.7,21.4-5.6,31.8-5.6c13.6,0,24.3,3.3,32,9.8c7.7,6.5,11.6,15.7,11.6,27.6l-0.2,16.6
			c-4.4-4-9.4-7.4-15-10.3c-12.5-6.5-26.6-9.8-42.3-9.8c-15.7,0-30,3.5-42.9,10.5c-12.9,7-23,16.6-30.3,28.9
			c-7.3,12.3-10.9,26-10.9,41.2c0,16.3,3.9,30.6,11.8,42.9c7.9,12.3,18.1,21.7,30.7,28c12.6,6.4,26.2,9.6,40.7,9.6
			c14.5,0,28-3.2,40.5-9.6c8.4-4.3,15.7-9.9,21.9-16.9l4.3,19.8h58.3V412.2C2031.1,381.6,2021.6,357.8,2002.6,340.8z M1946.1,513.2
			c-5.6,2.7-12.3,4-20,4c-7.1,0-13.6-1.3-19.4-4c-5.8-2.7-10.2-6.3-13.4-10.9c-3.1-4.6-4.7-10.2-4.7-16.7c0-6.2,1.6-11.7,4.7-16.5
			c3.1-4.7,7.6-8.5,13.4-11.1c5.8-2.7,12.2-4,19.4-4c7.7,0,14.4,1.3,20,4c5.6,2.7,10,6.4,13.1,11.1c3.1,4.8,4.7,10.2,4.7,16.5
			c0,6.5-1.6,12.1-4.7,16.7C1956.1,506.9,1951.7,510.6,1946.1,513.2z"/>
		<path class="st0" d="M2278.5,359c-6.8-13.8-16.5-24.5-28.9-32.3c-12.5-7.7-26.7-11.6-42.7-11.6c-14.8,0-28.9,3.9-42.3,11.6
			c-8.3,4.8-15.6,11-22,18.5l-4.7-23.4h-57v239.9h66.8V415.3c0-7.7,1.7-14.6,5.1-20.7c3.4-6.1,8-10.8,13.8-14.2
			c5.8-3.4,12.5-5.1,20.2-5.1c11.6,0,20.3,3.2,26.3,9.6c5.9,6.4,8.9,15.2,8.9,26.5v150.4h66.8V406.4
			C2288.8,388.6,2285.4,372.8,2278.5,359z"/>
	</g>
</g>
</svg>
